<svg width="27" height="18" viewBox="0 0 27 18" fill="none" xmlns="http://www.w3.org/2000/svg">
<path d="M24.1858 17.5C22.8518 17.5 22.0605 16.8173 22 15.834H23.2756C23.2756 16.1618 23.4572 16.5981 24.2463 16.6253C24.7933 16.6253 25.096 16.2975 25.096 16.0512C25.0355 15.6691 24.5491 15.6419 24.0647 15.5584C23.627 15.5067 23.1981 15.3972 22.7892 15.2327C22.5812 15.1163 22.4091 14.9454 22.2913 14.7382C22.1736 14.5311 22.1147 14.2956 22.1211 14.0574C22.1211 13.1827 22.8518 12.5 24.1253 12.5C25.3403 12.5 26.1294 13.1284 26.1879 14.0845H24.9749C24.9749 13.8403 24.9144 13.429 24.1858 13.429C23.6994 13.429 23.3967 13.5104 23.3361 13.8653C23.3361 14.358 24.3674 14.3309 25.1566 14.5209C25.8851 14.713 26.3716 15.1764 26.3716 15.834C26.3716 17.0365 25.4008 17.5 24.1858 17.5Z" fill="#1A2530"/>
<path d="M18.1086 15.2182C18.1086 15.9115 18.6598 16.4816 19.3758 16.4816C20.0368 16.4816 20.6411 15.9115 20.6411 15.2182C20.6297 14.8864 20.4927 14.5713 20.2578 14.3368C20.0229 14.1022 19.7076 13.9657 19.3758 13.9548C19.0408 13.9563 18.7199 14.0898 18.4827 14.3263C18.2455 14.5628 18.1111 14.8833 18.1086 15.2182ZM19.319 17.4988C19.0206 17.4991 18.7251 17.4401 18.4496 17.3253C18.1742 17.2104 17.9243 17.042 17.7144 16.8299C17.5046 16.6177 17.3389 16.3661 17.2271 16.0894C17.1153 15.8127 17.0595 15.5166 17.063 15.2182C17.063 13.9548 18.0537 12.9623 19.319 12.9623C19.8152 12.9623 20.2566 13.0873 20.6411 13.3582V13.0115H21.6885V17.3984H20.6411V17.1256C20.2465 17.3769 19.7867 17.5067 19.319 17.4988ZM13.0456 15.2182C13.0456 15.9115 13.6517 16.4816 14.3127 16.4816C15.0287 16.4816 15.5799 15.9115 15.5799 15.2182C15.5774 14.8833 15.443 14.5628 15.2058 14.3263C14.9686 14.0898 14.6477 13.9563 14.3127 13.9548C13.9808 13.9657 13.6653 14.1021 13.43 14.3366C13.1948 14.5712 13.0574 14.8863 13.0456 15.2182ZM15.5799 11.5H16.6804V17.3984H15.5799V17.1256C15.2088 17.3833 14.7643 17.5142 14.3127 17.4988C13.0456 17.4988 12 16.4816 12 15.2182C12 13.9548 13.0456 12.9623 14.3127 12.9623C14.8071 12.9623 15.2484 13.0873 15.5799 13.3582V11.5Z" fill="#1A2530"/>
<path d="M11 17.5L11 13.5L11 17.5Z" fill="#1A2530"/>
<path d="M11 17.5L11 13.5" stroke="#1A2530"/>
<path d="M6.11709 15.2188C6.11709 15.9122 6.7059 16.4824 7.47074 16.4824C8.17489 16.4824 8.8244 15.9122 8.8244 15.2188C8.8113 14.8869 8.66436 14.5721 8.41318 14.3376C8.162 14.1031 7.82523 13.9665 7.47074 13.9552C7.11292 13.9567 6.77015 14.0902 6.51675 14.3267C6.26335 14.5633 6.11975 14.8838 6.11709 15.2188ZM7.41207 17.4997C7.09313 17.5002 6.77725 17.4414 6.48279 17.3267C6.18832 17.2119 5.92112 17.0436 5.69673 16.8314C5.47234 16.6192 5.29522 16.3673 5.17564 16.0905C5.05606 15.8137 4.99641 15.5174 5.00017 15.2188C5.00017 13.9552 6.05841 12.9625 7.41207 12.9625C7.94018 12.9625 8.41162 13.0876 8.8244 13.3585V11.5H10V17.3993H8.8244V17.1265C8.40262 17.3773 7.91166 17.507 7.41207 17.4997Z" fill="#1A2530"/>
<path d="M1.11696 14.9864C1.11696 15.7505 1.76447 16.3789 2.46864 16.3789C3.23553 16.3789 3.82234 15.7505 3.82234 14.9864C3.82234 14.2495 3.23553 13.594 2.46864 13.594C2.11434 13.6064 1.77781 13.757 1.52694 14.0155C1.27608 14.2739 1.12956 14.6209 1.11696 14.9864ZM2.40996 17.5C1.11696 17.5 0 16.3789 0 14.9864C0 13.594 1.11696 12.5 2.40996 12.5C2.94011 12.5 3.41157 12.6378 3.82234 12.9364V12.5543H5V17.3893H3.82234V17.0887C3.47025 17.3622 2.94011 17.5 2.40996 17.5Z" fill="#1A2530"/>
<path d="M3 10.5L3.5 11.5H9.5L7 8L3 10.5Z" fill="#1A2530"/>
<path d="M11 11.5V12.5H12V11.5H16L11.5 4L7.5 6.5L11 11.5Z" fill="#1A2530"/>
<path d="M15.5 0L12 2.5L17.5 11.5H23L15.5 0Z" fill="#1A2530"/>
</svg>
