<svg width="45" height="15" viewBox="0 0 45 15" fill="none" xmlns="http://www.w3.org/2000/svg">
<path d="M14.482 12.8415L14.4383 1.9761C14.4383 0.883699 15.289 0 16.3795 0H16.5926C17.6842 0 18.5696 0.883699 18.5696 1.9761L18.613 12.8415C18.613 13.9323 17.7293 14.8185 16.6352 14.8185H16.4111C15.317 14.8185 14.482 13.9323 14.482 12.8415ZM39.4381 1.2833L43.83 8.43348C44.7794 9.97749 45 10.3798 45 11.5182C45 13.3136 43.3724 14.6872 41.9281 14.6872H35.9982C34.9143 14.6872 34.0409 13.9391 34.0409 12.8577V12.7342C34.0409 11.6537 34.9143 10.7785 35.9982 10.7785H39.6333C39.8608 10.7785 40.0057 10.7479 40.0654 10.6039C40.1319 10.4462 40.1139 10.3576 40.0057 10.1812L37.4161 6.02541C37.3725 5.95642 37.3249 5.86091 37.2431 5.86091C37.168 5.86091 37.1033 5.95642 37.0684 6.03046L33.1085 12.822C32.495 13.8999 31.769 14.6872 30.6868 14.6872H23.0781C21.6381 14.6872 20.1869 13.2667 20.1869 11.7952V1.97013C20.1869 0.890472 21.0611 0.0136607 22.1391 0.0136607H22.3888C23.4693 0.0136607 24.346 0.890472 24.346 1.97013L24.3427 9.99631C24.3427 10.2928 24.5574 10.5271 24.877 10.5271H28.6604C29.3208 10.5271 29.7205 10.2895 30.0681 9.71173L35.1528 1.2833C35.6385 0.481454 36.4156 0.0528061 37.3326 0.0528061C38.2196 0.0528061 38.9226 0.454133 39.4381 1.2833ZM4.6901 9.60096C4.62029 9.60085 4.55114 9.61454 4.48663 9.64123C4.42212 9.66793 4.36352 9.70711 4.3142 9.75652C4.26487 9.80593 4.2258 9.86459 4.19921 9.92915C4.17263 9.9937 4.15906 10.0629 4.15929 10.1327V12.8671C4.15929 13.9476 3.28408 14.8202 2.20534 14.8202H1.95394C0.875089 14.8202 0 13.9477 0 12.8671L0.00172194 7.89417C0.00172194 6.6321 0.9706 5.56611 2.32886 5.56611H10.2741C11.3521 5.56611 12.2279 6.442 12.2279 7.52258V7.64529C12.2279 8.72747 11.3521 9.60096 10.2741 9.60096H4.6901Z" fill="#9B9B9B"/>
<path d="M1.97739 0.28125H11.2322C12.323 0.28125 13.2102 1.13246 13.2102 2.22245V2.34505C13.2102 3.44009 12.323 4.32459 11.2322 4.32459H1.9775C0.885794 4.32459 0.000488292 3.44009 0.000488292 2.34505V2.20959C0.000373496 1.11719 0.88568 0.28125 1.97739 0.28125Z" fill="#E51937"/>
</svg>
