<svg width="36" height="19" viewBox="0 0 36 19" fill="none" xmlns="http://www.w3.org/2000/svg">
<path d="M10.8213 9.83297L14.235 0.235352H11.9785L10.4162 4.40035L10.7634 0.235352H8.39115L4.97743 9.83297H7.1761L8.85403 5.18506L8.56473 9.71224L10.8213 9.83297ZM13.4828 9.83297L16.8965 0.235352H14.7557L11.2841 9.83297H13.4828ZM19.6738 9.22934L19.5581 4.40035L22.7982 0.476801L19.6738 9.22934ZM35.4116 5.84905L24.4183 8.8068L24.7076 7.90137H22.3932L23.1454 5.6076H25.1126L25.6912 3.85709L23.724 3.97782L24.4183 2.04622H26.3277L26.9641 0.295714H20.7731L18.5166 3.07238L19.6159 0.235352H17.4173L14.0035 9.83297H16.2601L17.7066 5.72833V9.83297H20.5996L10.2427 12.67C9.1626 12.9919 8.19825 13.1328 7.34968 13.0925C6.50105 13.0523 5.84532 12.8108 5.38245 12.3682C4.34097 11.5634 3.97449 10.336 4.28311 8.68608C4.47596 7.59956 4.90024 6.5533 5.55603 5.54724C4.01308 7.23738 2.87516 8.66598 2.1423 9.83297C1.33227 11.0805 0.811531 12.3078 0.580092 13.5151C0.348653 14.7223 0.48364 15.7082 0.98511 16.4728C2.33515 18.8069 5.286 18.9678 9.83765 16.9557L35.4116 5.84905Z" fill="#1A2530"/>
</svg>
